<svg width="212" height="241" viewBox="0 0 212 241" fill="none" xmlns="http://www.w3.org/2000/svg">
<path opacity="0.0946098" d="M84.2828 228.405L116.251 156.401C118.232 151.94 118.002 146.578 115.646 142.364L77.5829 74.3374C75.2137 70.1158 71.0811 67.6663 66.7447 67.9134L-3.2802 71.8749C-7.62339 72.1374 -11.52 75.0351 -13.5005 79.4959L-45.4687 151.499C-47.4492 155.96 -47.22 161.323 -44.8642 165.536L-6.80062 233.563C-4.44476 237.777 -0.312133 240.226 4.03755 239.987L74.0625 236.026C78.3988 235.778 82.3023 232.865 84.2828 228.405Z" fill="url(#paint0_linear_11900_16)"/>
<path opacity="0.0946098" d="M185.497 221.387L201 186.47C201.963 184.301 201.851 181.708 200.703 179.668L182.245 146.675C181.097 144.634 179.097 143.449 176.993 143.562L143.032 145.486C140.928 145.599 139.033 147.021 138.077 149.175L122.575 184.092C121.612 186.261 121.724 188.853 122.872 190.894L141.33 223.887C142.478 225.928 144.478 227.113 146.582 227L180.542 225.076C182.634 224.955 184.541 223.54 185.497 221.387Z" fill="url(#paint1_linear_11900_16)"/>
<path opacity="0.0946098" d="M72.7712 45.3749L80.1196 28.8238C80.5772 27.7932 80.5139 26.5705 79.9862 25.5971L71.2358 9.95732C70.688 8.99143 69.7415 8.43042 68.7429 8.47974L52.6441 9.39111C51.6456 9.44043 50.7556 10.1176 50.298 11.1482L42.9496 27.6993C42.492 28.7299 42.5554 29.9527 43.083 30.926L51.8334 46.5658C52.3813 47.5317 53.3278 48.0927 54.3263 48.0434L70.4251 47.132C71.4172 47.0594 72.3137 46.4055 72.7712 45.3749Z" fill="url(#paint2_linear_11900_16)"/>
<defs>
<linearGradient id="paint0_linear_11900_16" x1="72.903" y1="69.453" x2="-20.7304" y2="227.428" gradientUnits="userSpaceOnUse">
<stop stop-color="#D4145A"/>
<stop offset="1" stop-color="#2E3192"/>
</linearGradient>
<linearGradient id="paint1_linear_11900_16" x1="68.3392" y1="158.037" x2="22.9212" y2="234.664" gradientUnits="userSpaceOnUse">
<stop stop-color="#D4145A"/>
<stop offset="1" stop-color="#2E3192"/>
</linearGradient>
<linearGradient id="paint2_linear_11900_16" x1="70.1548" y1="8.83086" x2="48.6285" y2="45.1492" gradientUnits="userSpaceOnUse">
<stop stop-color="#D4145A"/>
<stop offset="1" stop-color="#2E3192"/>
</linearGradient>
</defs>
</svg>
