<svg width="150" height="249" viewBox="0 0 150 249" fill="none" xmlns="http://www.w3.org/2000/svg">
<path opacity="0.0946098" d="M68.9373 85.6701L54.6337 162.387C53.7476 167.139 55.1272 172.096 58.2492 175.36L108.681 228.042C111.817 231.31 116.22 232.406 120.228 230.917L184.96 206.899C188.971 205.393 191.992 201.549 192.878 196.796L207.182 120.08C208.068 115.327 206.688 110.37 203.566 107.107L153.135 54.4242C150.013 51.1605 145.61 50.0645 141.587 51.55L76.8552 75.5677C72.847 77.0567 69.8234 80.9173 68.9373 85.6701Z" fill="url(#paint0_linear_11900_17)"/>
<path opacity="0.0946098" d="M50.53 -22.7992L42.4445 20.5673C41.9422 23.261 42.7209 26.0536 44.4916 27.8937L72.9997 57.679C74.7703 59.5191 77.2538 60.1372 79.5231 59.3027L116.117 45.7215C118.386 44.887 120.094 42.6934 120.593 40.0189L128.679 -3.34765C129.181 -6.04134 128.402 -8.83397 126.632 -10.674L98.1234 -40.4594C96.3528 -42.2994 93.8693 -42.9176 91.6 -42.0831L55.0063 -28.5019C52.7536 -27.6633 51.0287 -25.4738 50.53 -22.7992Z" fill="url(#paint1_linear_11900_17)"/>
<path opacity="0.0946098" d="M8.40556 60.1446L3.38299 87.083C3.07025 88.7603 3.56663 90.4819 4.64468 91.641L22.3554 110.144C23.4598 111.283 25.0004 111.666 26.4129 111.153L49.1462 102.718C50.5587 102.205 51.6075 100.842 51.9202 99.1641L56.9428 72.2258C57.2555 70.5484 56.7592 68.8268 55.6811 67.6677L37.9704 49.1652C36.8659 48.0258 35.3254 47.6423 33.9129 48.1553L11.1796 56.5911C9.78415 57.1345 8.7183 58.4672 8.40556 60.1446Z" fill="url(#paint2_linear_11900_17)"/>
<defs>
<linearGradient id="paint0_linear_11900_17" x1="114.125" y1="231.26" x2="158.287" y2="53.8349" gradientUnits="userSpaceOnUse">
<stop stop-color="#D4145A"/>
<stop offset="1" stop-color="#2E3192"/>
</linearGradient>
<linearGradient id="paint1_linear_11900_17" x1="76.0836" y1="59.5321" x2="101.054" y2="-40.7886" gradientUnits="userSpaceOnUse">
<stop stop-color="#D4145A"/>
<stop offset="1" stop-color="#2E3192"/>
</linearGradient>
<linearGradient id="paint2_linear_11900_17" x1="24.276" y1="111.277" x2="39.7855" y2="48.9657" gradientUnits="userSpaceOnUse">
<stop stop-color="#D4145A"/>
<stop offset="1" stop-color="#2E3192"/>
</linearGradient>
</defs>
</svg>
