<svg width="370" height="346" viewBox="0 0 370 346" fill="none" xmlns="http://www.w3.org/2000/svg">
<path opacity="0.0946098" d="M129.646 350.268L195.135 222.606C199.192 214.697 198.722 205.189 193.896 197.718L115.921 77.1073C111.068 69.6224 102.602 65.2795 93.7184 65.7177L-49.7314 72.7413C-58.6287 73.2068 -66.6111 78.3443 -70.6682 86.2533L-136.157 213.915C-140.214 221.824 -139.744 231.332 -134.918 238.803L-56.9432 359.414C-52.1171 366.885 -43.6512 371.228 -34.7406 370.804L108.709 363.78C117.592 363.342 125.589 358.177 129.646 350.268Z" fill="url(#paint0_linear_11899_2)"/>
<path opacity="0.0946098" d="M316.138 362.224L347.896 300.316C349.869 296.471 349.64 291.874 347.287 288.256L309.476 229.76C307.123 226.142 303.027 224.04 298.716 224.24L229.147 227.652C224.835 227.852 220.954 230.374 218.996 234.192L187.238 296.1C185.265 299.946 185.495 304.542 187.847 308.16L225.659 366.656C228.011 370.275 232.107 372.376 236.418 372.176L305.988 368.764C310.272 368.55 314.18 366.042 316.138 362.224Z" fill="url(#paint1_linear_11899_2)"/>
<path opacity="0.0946098" d="M264.022 194.971L279.075 165.626C280.013 163.798 279.883 161.63 278.802 159.905L260.876 132.175C259.754 130.463 257.815 129.468 255.769 129.556L222.79 131.172C220.745 131.259 218.921 132.46 217.984 134.287L202.93 163.632C201.993 165.459 202.123 167.627 203.204 169.353L221.129 197.082C222.252 198.795 224.191 199.789 226.236 199.702L259.216 198.086C261.248 197.957 263.084 196.798 264.022 194.971Z" fill="url(#paint2_linear_11899_2)"/>
<defs>
<linearGradient id="paint0_linear_11899_2" x1="106.334" y1="68.4473" x2="-47.3744" y2="368.083" gradientUnits="userSpaceOnUse">
<stop stop-color="#D4145A"/>
<stop offset="1" stop-color="#2E3192"/>
</linearGradient>
<linearGradient id="paint1_linear_11899_2" x1="304.83" y1="225.506" x2="230.272" y2="370.847" gradientUnits="userSpaceOnUse">
<stop stop-color="#D4145A"/>
<stop offset="1" stop-color="#2E3192"/>
</linearGradient>
<linearGradient id="paint2_linear_11899_2" x1="258.662" y1="130.178" x2="223.324" y2="199.064" gradientUnits="userSpaceOnUse">
<stop stop-color="#D4145A"/>
<stop offset="1" stop-color="#2E3192"/>
</linearGradient>
</defs>
</svg>
