<svg width="396" height="294" viewBox="0 0 396 294" fill="none" xmlns="http://www.w3.org/2000/svg">
<path opacity="0.0946098" d="M207.999 -4.14567L177.783 136.116C175.911 144.806 178.825 153.868 185.42 159.835L291.955 256.155C298.58 262.129 307.882 264.133 316.349 261.41L453.093 217.498C461.567 214.746 467.947 207.717 469.819 199.028L500.035 58.766C501.907 50.0765 498.993 41.0143 492.398 35.0471L385.863 -61.2729C379.268 -67.2401 369.966 -69.2439 361.469 -66.528L224.725 -22.6161C216.258 -19.8937 209.871 -12.8353 207.999 -4.14567Z" fill="url(#paint0_linear_11899_15)"/>
<path opacity="0.0946098" d="M24.7664 32.5734L10.1136 100.592C9.20349 104.817 10.6147 109.197 13.8234 112.083L65.4864 158.8C68.6952 161.686 73.1959 162.656 77.3083 161.347L143.624 140.045C147.737 138.736 150.833 135.296 151.736 131.101L166.389 63.0824C167.299 58.8574 165.888 54.4773 162.679 51.5913L111.016 4.87432C107.808 1.98826 103.307 1.01869 99.1944 2.32759L32.8785 23.6291C28.7961 24.9444 25.6701 28.3785 24.7664 32.5734Z" fill="url(#paint1_linear_11899_15)"/>
<path opacity="0.0946098" d="M118.396 180.639L111.45 212.88C111.018 214.888 111.704 216.948 113.195 218.335L137.687 240.48C139.214 241.844 141.344 242.303 143.297 241.689L174.735 231.593C176.688 230.979 178.138 229.347 178.571 227.34L185.516 195.098C185.949 193.091 185.262 191.03 183.772 189.643L159.28 167.498C157.753 166.134 155.622 165.675 153.669 166.289L122.232 176.386C120.302 177.036 118.828 178.631 118.396 180.639Z" fill="url(#paint2_linear_11899_15)"/>
<defs>
<linearGradient id="paint0_linear_11899_15" x1="303.457" y1="262.039" x2="374.376" y2="-67.1699" gradientUnits="userSpaceOnUse">
<stop stop-color="#D4145A"/>
<stop offset="1" stop-color="#2E3192"/>
</linearGradient>
<linearGradient id="paint1_linear_11899_15" x1="71.0752" y1="161.707" x2="105.475" y2="2.02017" gradientUnits="userSpaceOnUse">
<stop stop-color="#D4145A"/>
<stop offset="1" stop-color="#2E3192"/>
</linearGradient>
<linearGradient id="paint2_linear_11899_15" x1="140.342" y1="241.836" x2="156.647" y2="166.151" gradientUnits="userSpaceOnUse">
<stop stop-color="#D4145A"/>
<stop offset="1" stop-color="#2E3192"/>
</linearGradient>
</defs>
</svg>
